<!-- Generated by IcoMoon.io -->
<svg version="1.1" xmlns="http://www.w3.org/2000/svg" width="32" height="32" viewBox="0 0 32 32">
<title>social-youtube</title>
<path d="M27.499 10.59c-0.29-1.015-1.074-1.799-2.068-2.084l-0.021-0.005c-1.87-0.501-9.4-0.501-9.4-0.501s-7.51-0.010-9.4 0.501c-1.015 0.29-1.799 1.074-2.084 2.068l-0.005 0.021c-0.332 1.711-0.522 3.679-0.522 5.691 0 0.041 0 0.082 0 0.122v-0.006c0 0.028 0 0.062 0 0.095 0 2.012 0.19 3.979 0.553 5.886l-0.031-0.195c0.29 1.015 1.074 1.799 2.068 2.084l0.021 0.005c1.869 0.502 9.4 0.502 9.4 0.502s7.509 0 9.4-0.502c1.015-0.29 1.799-1.074 2.084-2.068l0.005-0.021c0.319-1.675 0.501-3.604 0.501-5.574 0-0.074 0-0.149-0.001-0.223v0.011c0.001-0.069 0.001-0.151 0.001-0.233 0-1.97-0.182-3.898-0.531-5.767l0.030 0.194v-0.001zM13.607 19.99v-7.196l6.266 3.604-6.266 3.592z"></path>
</svg>
